0
SECTION
2
HEADER
9
$INSUNITS
70
4
9
$ACADVER
1
AC1014
9
$HANDSEED
5
FFFF
0
ENDSEC
0
SECTION
2
TABLES
0
TABLE
2
VPORT
5
8
100
AcDbSymbolTable
0
ENDTAB
0
TABLE
2
LTYPE
5
5
100
AcDbSymbolTable
0
LTYPE
5
14
100
AcDbSymbolTableRecord
100
AcDbLinetypeTableRecord
2
BYBLOCK
70
0
0
LTYPE
5
15
100
AcDbSymbolTableRecord
100
AcDbLinetypeTableRecord
2
BYLAYER
70
0
0
ENDTAB
0
TABLE
2
LAYER
5
2
100
AcDbSymbolTable
70
2
0
LAYER
5
50
100
AcDbSymbolTableRecord
100
AcDbLayerTableRecord
2
0
70
0
6
CONTINUOUS
0
ENDTAB
0
TABLE
2
STYLE
5
3
100
AcDbSymbolTable
70
1
0
STYLE
5
11
100
AcDbSymbolTableRecord
100
AcDbTextStyleTableRecord
2
STANDARD
70
0
0
ENDTAB
0
TABLE
2
VIEW
5
6
100
AcDbSymbolTable
70
0
0
ENDTAB
0
TABLE
2
UCS
5
7
100
AcDbSymbolTable
70
0
0
ENDTAB
0
TABLE
2
APPID
5
9
100
AcDbSymbolTable
70
2
0
APPID
5
12
100
AcDbSymbolTableRecord
100
AcDbRegAppTableRecord
2
ACAD
70
0
0
ENDTAB
0
TABLE
2
DIMSTYLE
5
A
100
AcDbSymbolTable
70
1
0
ENDTAB
0
TABLE
2
BLOCK_RECORD
5
1
100
AcDbSymbolTable
70
1
0
BLOCK_RECORD
5
1F
100
AcDbSymbolTableRecord
100
AcDbBlockTableRecord
2
*MODEL_SPACE
0
BLOCK_RECORD
5
1B
100
AcDbSymbolTableRecord
100
AcDbBlockTableRecord
2
*PAPER_SPACE
0
ENDTAB
0
ENDSEC
0
SECTION
2
BLOCKS
0
BLOCK
5
20
100
AcDbEntity
100
AcDbBlockBegin
2
*MODEL_SPACE
0
ENDBLK
5
21
100
AcDbEntity
100
AcDbBlockEnd
0
BLOCK
5
1C
100
AcDbEntity
100
AcDbBlockBegin
2
*PAPER_SPACE
0
ENDBLK
5
1D
100
AcDbEntity
100
AcDbBlockEnd
0
ENDSEC
0
SECTION
2
ENTITIES
0
CIRCLE
5
100
100
AcDbEntity
8
0
100
AcDbCircle
10
-134.73831390338495
20
-78.61366627255849
30
0
40
3.6500000000000021
210
-0
220
0
230
1
0
LWPOLYLINE
5
101
100
AcDbEntity
8
0
100
AcDbPolyline
90
8
70
1
43
0.0
10
-74.607160387969572
20
-73.726207663740809
42
7.5498344352707774
10
-74.607160387969572
20
-77.501124881376171
42
0.76607734159747287
10
-60.60716038796955
20
-77.501124881376185
42
0.76607734159747387
10
-46.607160387969529
20
-77.501124881376157
42
0.76607734159747598
10
-32.607160387969493
20
-77.501124881376171
42
7.5498344352707907
10
-32.607160387969493
20
-73.726207663740809
42
0.76607734159747443
10
-46.607160387969522
20
-73.726207663740823
42
0.76607734159747398
10
-60.60716038796955
20
-73.72620766374078
42
0.76607734159747287
0
LWPOLYLINE
5
102
100
AcDbEntity
8
0
100
AcDbPolyline
90
4
70
1
43
0.0
10
-70.534132880062856
20
-42.100256844759308
10
-70.534132880062884
20
-59.100256844759315
10
-103.53413288006288
20
-59.100256844759315
10
-103.53413288006288
20
-42.100256844759308
0
CIRCLE
5
103
100
AcDbEntity
8
0
100
AcDbCircle
10
-39.329947119207958
20
-34.775248185959498
30
0
40
23.999999999999993
210
7.3468396926392969e-40
220
-2.1895288505075267e-47
230
1
0
CIRCLE
5
104
100
AcDbEntity
8
0
100
AcDbCircle
10
-134.73831390338495
20
-34.775252520608419
30
0
40
23.999999999999986
210
7.3468396926392969e-40
220
5.2434775401619236e-94
230
1
0
LINE
5
105
100
AcDbEntity
8
0
100
AcDbLine
10
-169.53414181648699
20
-58.600269342317432
30
0
11
-169.53414699620072
21
-63.000266807095464
31
0
0
LINE
5
106
100
AcDbEntity
8
0
100
AcDbLine
10
-169.53413113253876
20
-63.000266807114151
30
0
11
-169.53413193351935
21
-65.500263219682026
31
0
0
LINE
5
107
100
AcDbEntity
8
0
100
AcDbLine
10
-169.53413193351935
20
-65.500263219682026
30
0
11
-169.53413898406538
21
-87.506215629015514
31
-1.0438944814279107e-30
0
LINE
5
108
100
AcDbEntity
8
0
100
AcDbLine
10
-169.53413898406538
20
-87.506215629015514
30
-1.0438944814279107e-30
11
-169.44794837627171
21
-88.601251857303197
31
0
0
LINE
5
109
100
AcDbEntity
8
0
100
AcDbLine
10
-169.44794837627171
20
-88.601251857303197
30
0
11
-169.19152310378001
21
-89.669325662029294
31
0
0
LINE
5
110
100
AcDbEntity
8
0
100
AcDbLine
10
-169.19152310378001
20
-89.669325662029294
30
0
11
-168.77118618005699
21
-90.684140998157957
31
0
0
LINE
5
111
100
AcDbEntity
8
0
100
AcDbLine
10
-168.77118618005699
20
-90.684140998157957
30
0
11
-168.1972526801643
21
-91.620706215477242
31
0
0
LINE
5
112
100
AcDbEntity
8
0
100
AcDbLine
10
-168.1972526801643
20
-91.620706215477242
30
0
11
-167.48388133940696
21
-92.455964240633079
31
0
0
LINE
5
113
100
AcDbEntity
8
0
100
AcDbLine
10
-167.48388133940696
20
-92.455964240633079
30
0
11
-166.64862558525496
21
-93.169329093537797
31
0
0
LINE
5
114
100
AcDbEntity
8
0
100
AcDbLine
10
-166.64862558525496
20
-93.169329093537797
30
0
11
-165.71206990990936
21
-93.743257792605192
31
0
0
LINE
5
115
100
AcDbEntity
8
0
100
AcDbLine
10
-165.71206990990936
20
-93.743257792605192
30
0
11
-164.69725736092673
21
-94.163611751113606
31
0
0
LINE
5
116
100
AcDbEntity
8
0
100
AcDbLine
10
-164.69725736092673
20
-94.163611751113606
30
0
11
-163.62917794570322
21
-94.420033108973314
31
0
0
LINE
5
117
100
AcDbEntity
8
0
100
AcDbLine
10
-163.62917794570322
20
-94.420033108973314
30
0
11
-162.53412994677194
21
-94.506216742546883
31
0
0
LINE
5
118
100
AcDbEntity
8
0
100
AcDbLine
10
-162.53412994677194
20
-94.506216742546883
30
0
11
-11.534125648356834
21
-94.506206284522676
31
0
0
LINE
5
119
100
AcDbEntity
8
0
100
AcDbLine
10
-11.534125648356834
20
-94.506206284522676
30
0
11
-10.439095946275867
21
-94.420024835617198
31
0
0
LINE
5
120
100
AcDbEntity
8
0
100
AcDbLine
10
-10.439095946275867
20
-94.420024835617198
30
0
11
-9.3710291243864834
21
-94.163607620844104
31
0
0
LINE
5
121
100
AcDbEntity
8
0
100
AcDbLine
10
-9.3710291243864834
20
-94.163607620844104
30
0
11
-8.3561905565975021
21
-93.743252029813249
31
0
0
LINE
5
122
100
AcDbEntity
8
0
100
AcDbLine
10
-8.3561905565975021
20
-93.743252029813249
30
0
11
-7.4196325504300011
21
-93.169326037054361
31
0
0
LINE
5
123
100
AcDbEntity
8
0
100
AcDbLine
10
-7.4196325504300011
20
-93.169326037054361
30
0
11
-6.5843817364258808
21
-92.455962203430815
31
0
0
LINE
5
124
100
AcDbEntity
8
0
100
AcDbLine
10
-6.5843817364258808
20
-92.455962203430815
30
0
11
-5.8710166552061072
21
-91.620706999863614
31
0
0
LINE
5
125
100
AcDbEntity
8
0
100
AcDbLine
10
-5.8710166552061072
20
-91.620706999863614
30
0
11
-5.2970773202618568
21
-90.684152076156266
31
0
0
LINE
5
126
100
AcDbEntity
8
0
100
AcDbLine
10
-5.2970773202618568
20
-90.684152076156266
30
0
11
-4.8767399338206401
21
-89.669324460330557
31
0
0
LINE
5
127
100
AcDbEntity
8
0
100
AcDbLine
10
-4.8767399338206401
20
-89.669324460330557
30
0
11
-4.6203070268239994
21
-88.601247999084478
31
0
0
LINE
5
128
100
AcDbEntity
8
0
100
AcDbLine
10
-4.6203070268239994
20
-88.601247999084478
30
0
11
-4.5341335724973018
21
-87.506200349684605
31
0
0
LINE
5
129
100
AcDbEntity
8
0
100
AcDbLine
10
-4.5341335724973018
20
-87.506200349684605
30
0
11
-4.534128571312368
21
-63.500263813643215
31
5.2420550426408813e-30
0
LINE
5
130
100
AcDbEntity
8
0
100
AcDbLine
10
-4.534128571312368
20
-63.500263813643215
30
5.2420550426408813e-30
11
-4.5341282968390235
21
-62.182778100338979
31
0
0
LINE
5
131
100
AcDbEntity
8
0
100
AcDbLine
10
-4.5341282968390235
20
-62.182778100338979
30
0
11
-4.5341320614217944
21
-58.600263100663923
31
0
0
LINE
5
132
100
AcDbEntity
8
0
100
AcDbLine
10
-4.5341320614217944
20
-58.600263100663923
30
0
11
-4.5341421592084465
21
-54.188939343152526
31
0
0
LINE
5
133
100
AcDbEntity
8
0
100
AcDbLine
10
-4.5341304241034681
20
-54.188939343156889
30
0
11
-4.5341290921169612
21
-50.600251897407887
31
0
0
LINE
5
134
100
AcDbEntity
8
0
100
AcDbLine
10
-4.5341290921169612
20
-50.600251897407887
30
0
11
-4.5341293182945499
21
-46.500251909281936
31
0
0
LINE
5
135
100
AcDbEntity
8
0
100
AcDbLine
10
-4.5341293182945499
20
-46.500251909281936
30
0
11
-4.5341263084011878
21
-43.10026161947161
31
6.9602035629308452e-31
0
LINE
5
136
100
AcDbEntity
8
0
100
AcDbLine
10
-4.5341263084011878
20
-43.10026161947161
30
6.9602035629308452e-31
11
-4.5341247866351555
21
-39.000263134614883
31
0
0
LINE
5
137
100
AcDbEntity
8
0
100
AcDbLine
10
-4.5341247866351555
20
-39.000263134614883
30
0
11
-4.5341234546573403
21
-35.411599110395137
31
0
0
LINE
5
138
100
AcDbEntity
8
0
100
AcDbLine
10
-4.5341335564422991
20
-35.411599110391386
30
0
11
-4.534134793502977
21
-31.000259237440908
31
7.6491017676489548e-30
0
LINE
5
139
100
AcDbEntity
8
0
100
AcDbLine
10
-4.5341218173330331
20
-31.000259237445746
30
0
11
-4.5341204876342376
21
-27.417735428417092
31
0
0
LINE
5
140
100
AcDbEntity
8
0
100
AcDbLine
10
-4.5341371061784876
20
-27.417735428410918
30
0
11
-4.534141147330681
21
-23.000264149623781
31
2.2038141135362548e-31
0
LINE
5
141
100
AcDbEntity
8
0
100
AcDbLine
10
-4.534118848034181
20
-23.000264149632073
30
0
11
-4.5341175221920196
21
-19.428131027633071
31
0
0
LINE
5
142
100
AcDbEntity
8
0
100
AcDbLine
10
-4.5341295409780882
20
-19.428131027628606
30
0
11
-4.5341338825207007
21
-16.000263813667711
31
1.8506526553095827e-30
0
LINE
5
143
100
AcDbEntity
8
0
100
AcDbLine
10
-4.5341338825207007
20
-16.000263813667711
30
1.8506526553095827e-30
11
-4.5341395744427153
21
-11.506203825426912
31
1.8986071257110777e-30
0
LINE
5
144
100
AcDbEntity
8
0
100
AcDbLine
10
-4.5341395744427153
20
-11.506203825426912
30
1.8986071257110777e-30
11
-4.6202964217978169
21
-10.411158759546984
31
0
0
LINE
5
145
100
AcDbEntity
8
0
100
AcDbLine
10
-4.6202964217978169
20
-10.411158759546984
30
0
11
-4.8767279254880158
21
-9.3430823766625561
31
0
0
LINE
5
146
100
AcDbEntity
8
0
100
AcDbLine
10
-4.8767279254880158
20
-9.3430823766625561
30
0
11
-5.2970883495918839
21
-8.328281947702834
31
0
0
LINE
5
147
100
AcDbEntity
8
0
100
AcDbLine
10
-5.2970883495918839
20
-8.328281947702834
30
0
11
-5.8709915673204911
21
-7.3917041730579385
31
0
0
LINE
5
148
100
AcDbEntity
8
0
100
AcDbLine
10
-5.8709915673204911
20
-7.3917041730579385
30
0
11
-6.5843942914114626
21
-6.5564591618577435
31
0
0
LINE
5
149
100
AcDbEntity
8
0
100
AcDbLine
10
-6.5843942914114626
20
-6.5564591618577435
30
0
11
-7.4196318762650657
21
-5.8430867745576283
31
0
0
LINE
5
150
100
AcDbEntity
8
0
100
AcDbLine
10
-7.4196318762650657
20
-5.8430867745576283
30
0
11
-8.3562007656458643
21
-5.26916355505052
31
0
0
LINE
5
151
100
AcDbEntity
8
0
100
AcDbLine
10
-8.3562007656458643
20
-5.26916355505052
30
0
11
-9.3710074329613864
21
-4.8488019954535444
31
0
0
LINE
5
152
100
AcDbEntity
8
0
100
AcDbLine
10
-9.3710074329613864
20
-4.8488019954535444
30
0
11
-10.439097859880899
21
-4.5923852038940822
31
0
0
LINE
5
153
100
AcDbEntity
8
0
100
AcDbLine
10
-10.439097859880899
20
-4.5923852038940822
30
0
11
-11.534120907730438
21
-4.5061963857684333
31
0
0
LINE
5
154
100
AcDbEntity
8
0
100
AcDbLine
10
-11.534120907730438
20
-4.5061963857684333
30
0
11
-162.53414286526467
21
-4.5062109403189643
31
0
0
LINE
5
155
100
AcDbEntity
8
0
100
AcDbLine
10
-162.53414286526467
20
-4.5062109403189643
30
0
11
-163.62917742865406
21
-4.5923931145749357
31
0
0
LINE
5
156
100
AcDbEntity
8
0
100
AcDbLine
10
-163.62917742865406
20
-4.5923931145749357
30
0
11
-164.69725397316034
21
-4.848811780048992
31
0
0
LINE
5
157
100
AcDbEntity
8
0
100
AcDbLine
10
-164.69725397316034
20
-4.848811780048992
30
0
11
-165.71206823440713
21
-5.2691637443274058
31
0
0
LINE
5
158
100
AcDbEntity
8
0
100
AcDbLine
10
-165.71206823440713
20
-5.2691637443274058
30
0
11
-166.6486273821497
21
-5.8430869841622997
31
0
0
LINE
5
159
100
AcDbEntity
8
0
100
AcDbLine
10
-166.6486273821497
20
-5.8430869841622997
30
0
11
-167.48388540730556
21
-6.5564583249196247
31
0
0
LINE
5
160
100
AcDbEntity
8
0
100
AcDbLine
10
-167.48388540730556
20
-6.5564583249196247
30
0
11
-168.1972524625495
21
-7.3917149923316607
31
0
0
LINE
5
161
100
AcDbEntity
8
0
100
AcDbLine
10
-168.1972524625495
20
-7.3917149923316607
30
0
11
-168.77117865015177
21
-8.3282767241100792
31
0
0
LINE
5
162
100
AcDbEntity
8
0
100
AcDbLine
10
-168.77117865015177
20
-8.3282767241100792
30
0
11
-169.19153655670851
21
-9.3430922007824027
31
0
0
LINE
5
163
100
AcDbEntity
8
0
100
AcDbLine
10
-169.19153655670851
20
-9.3430922007824027
30
0
11
-169.4479493335264
21
-10.411167412380911
31
0
0
LINE
5
164
100
AcDbEntity
8
0
100
AcDbLine
10
-169.4479493335264
20
-10.411167412380911
30
0
11
-169.53413790921931
21
-11.50620971755462
31
0
0
LINE
5
165
100
AcDbEntity
8
0
100
AcDbLine
10
-169.53413790921931
20
-11.50620971755462
30
0
11
-169.53413162213559
21
-25.500263219716899
31
0
0
LINE
5
166
100
AcDbEntity
8
0
100
AcDbLine
10
-169.53413162213559
20
-25.500263219716899
30
0
11
-169.53413112794146
21
-26.600261164860406
31
0
0
LINE
5
167
100
AcDbEntity
8
0
100
AcDbLine
10
-169.53410414581032
20
-26.600261164892164
30
0
11
-169.53410932553106
21
-31.000264565877362
31
0
0
LINE
5
168
100
AcDbEntity
8
0
100
AcDbLine
10
-169.5341411051873
20
-31.000264565839952
30
0
11
-169.53413084369046
21
-34.600266512735331
31
0
0
LINE
5
169
100
AcDbEntity
8
0
100
AcDbLine
10
-169.53411356348337
20
-34.600266512755674
30
0
11
-169.53411874320409
21
-39.00026991374088
31
0
0
LINE
5
170
100
AcDbEntity
8
0
100
AcDbLine
10
-169.5341408209363
20
-39.000269913714888
30
0
11
-169.53413541357051
21
-43.10025889014841
31
0
0
LINE
5
171
100
AcDbEntity
8
0
100
AcDbLine
10
-169.53412356974536
20
-43.100258890162351
30
0
11
-169.53412757226022
21
-46.500264220517721
31
-8.6493791023071315e-31
0
LINE
5
172
100
AcDbEntity
8
0
100
AcDbLine
10
-169.53412757226022
20
-46.500264220517721
30
-8.6493791023071315e-31
11
-169.53413666800884
21
-50.600261792110757
31
0
0
LINE
5
173
100
AcDbEntity
8
0
100
AcDbLine
10
-169.53413666800884
20
-50.600261792110757
30
0
11
-169.53413757852508
21
-55.00025925689382
31
0
0
LINE
5
174
100
AcDbEntity
8
0
100
AcDbLine
10
-169.53413757852508
20
-55.00025925689382
30
0
11
-169.53414181648699
21
-58.600269342317432
31
0
0
ENDSEC
0
SECTION
2
OBJECTS
0
DICTIONARY
5
C
100
AcDbDictionary
3
ACAD_GROUP
350
D
3
ACAD_MLINESTYLE
350
17
0
DICTIONARY
5
D
100
AcDbDictionary
0
DICTIONARY
5
1A
330
C
100
AcDbDictionary
0
DICTIONARY
5
17
100
AcDbDictionary
0
ENDSEC
0
EOF
